<?xml version="1.0"?>
<svg id="_图层_1" data-name="图层 1" xmlns="http://www.w3.org/2000/svg" viewBox="0 0 500 500">
  <defs>
    
  </defs>
  <path class="cls-1" d="M263.69,69.21v53.59c0,1.82,1.21,3.42,2.97,3.91l119.65,33.45c1.75.49,2.97,2.09,2.97,3.91v168.11c0,1.78-1.16,3.35-2.86,3.88l-119.87,37.18c-1.7.53-2.86,2.1-2.86,3.88v53.67c0,2.76,2.7,4.72,5.33,3.86l175.34-57.52c1.67-.55,2.8-2.1,2.8-3.86V121.06c0-1.8-1.18-3.38-2.91-3.9l-175.34-51.85c-2.6-.77-5.21,1.18-5.21,3.9Z"></path>
  <path class="cls-1" d="M236.31,69.21v53.59c0,1.82-1.21,3.42-2.97,3.91l-119.65,33.45c-1.75.49-2.97,2.09-2.97,3.91v168.11c0,1.78,1.16,3.35,2.86,3.88l119.87,37.18c1.7.53,2.86,2.1,2.86,3.88v53.67c0,2.76-2.7,4.72-5.33,3.86l-175.34-57.52c-1.67-.55-2.8-2.1-2.8-3.86V121.06c0-1.8,1.18-3.38,2.91-3.9l175.34-51.85c2.6-.77,5.21,1.18,5.21,3.9Z"></path>
  <path class="cls-1" d="M206.91,202.57v87.55c0,2.71-2.6,4.66-5.2,3.9l-44.57-13.03c-1.73-.51-2.92-2.09-2.92-3.9v-62.65c0-1.84,1.24-3.45,3.02-3.93l44.57-11.88c2.58-.69,5.11,1.26,5.11,3.93Z"></path>
  <path class="cls-1" d="M232.53,249.23c0-37.26,30.47-67.42,67.86-66.9,35.53.49,65.44,30.41,65.94,65.94.52,37.39-29.62,67.86-66.89,67.86s-66.9-29.96-66.9-66.9"></path>
</svg>